<svg width="27" height="22" viewBox="0 0 27 22" fill="none" xmlns="http://www.w3.org/2000/svg">
<path fill-rule="evenodd" clip-rule="evenodd" d="M0 11C0 10.5833 0.17777 10.1837 0.494202 9.88903C0.810635 9.59439 1.23981 9.42886 1.68731 9.42886H21.2365L13.9912 2.6855C13.6744 2.39048 13.4964 1.99035 13.4964 1.57313C13.4964 1.15591 13.6744 0.755778 13.9912 0.460759C14.308 0.16574 14.7377 0 15.1858 0C15.6339 0 16.0636 0.16574 16.3804 0.460759L26.5043 9.88763C26.6614 10.0336 26.7861 10.207 26.8712 10.3978C26.9562 10.5887 27 10.7933 27 11C27 11.2067 26.9562 11.4113 26.8712 11.6022C26.7861 11.793 26.6614 11.9664 26.5043 12.1124L16.3804 21.5392C16.0636 21.8343 15.6339 22 15.1858 22C14.7377 22 14.308 21.8343 13.9912 21.5392C13.6744 21.2442 13.4964 20.8441 13.4964 20.4269C13.4964 20.0097 13.6744 19.6095 13.9912 19.3145L21.2365 12.5711H1.68731C1.23981 12.5711 0.810635 12.4056 0.494202 12.111C0.17777 11.8163 0 11.4167 0 11Z" fill="black"/>
</svg>
