<svg aria-hidden="true" style="position: absolute; width: 0; height: 0; overflow: hidden;" version="1.1" xmlns="http://www.w3.org/2000/svg" xmlns:xlink="http://www.w3.org/1999/xlink">
<defs>
<symbol id="icon-behance" viewBox="0 0 32 32">
<path d="M13.613 19.057c0 1.311-0.951 1.726-2.12 1.726h-3.064v-3.594h3.125c1.264 0.007 2.058 0.53 2.058 1.868zM13.090 13.466c0-1.202-0.931-1.488-1.963-1.488h-2.69v3.043h2.901c1.026 0 1.753-0.448 1.753-1.556zM22.078 15.042c-1.243 0-2.072 0.775-2.153 2.018h4.226c-0.115-1.257-0.768-2.018-2.072-2.018zM31.378 4.587v23.913c0 1.8-1.461 3.261-3.261 3.261h-23.913c-1.8 0-3.261-1.461-3.261-3.261v-23.913c0-1.8 1.461-3.261 3.261-3.261h23.913c1.8 0 3.261 1.461 3.261 3.261zM19.401 11.72h5.285v-1.284h-5.285v1.284zM16.48 19.213c0-1.637-0.775-3.050-2.378-3.506 1.168-0.557 1.78-1.202 1.78-2.514 0-2.595-1.936-3.227-4.171-3.227h-6.148v13.044h6.325c2.371-0.014 4.592-1.148 4.592-3.798zM26.759 18.208c0-2.792-1.637-5.122-4.592-5.122-2.88 0-4.83 2.16-4.83 5 0 2.942 1.855 4.959 4.83 4.959 2.255 0 3.716-1.012 4.423-3.179h-2.289c-0.251 0.808-1.264 1.23-2.052 1.23-1.522 0-2.317-0.89-2.317-2.398h6.807c0.007-0.156 0.020-0.326 0.020-0.489z"></path>
</symbol>
<symbol id="icon-dribbble" viewBox="0 0 32 32">
<path d="M16.088 1c-8.547 0-15.5 6.953-15.5 15.5s6.953 15.5 15.5 15.5c8.547 0 15.5-6.953 15.5-15.5s-6.953-15.5-15.5-15.5zM26.336 8.148c1.844 2.253 2.96 5.122 2.99 8.247-0.436-0.092-4.814-0.98-9.219-0.426-0.36-0.878-0.699-1.65-1.164-2.601 4.895-1.999 7.114-4.843 7.393-5.22zM24.864 6.617c-0.238 0.339-2.231 3.018-6.939 4.782-2.17-3.986-4.574-7.261-4.94-7.75 4.199-1.012 8.623 0.079 11.879 2.968zM10.459 4.539c0.349 0.479 2.715 3.757 4.909 7.657-6.193 1.645-11.648 1.621-12.24 1.613 0.859-4.108 3.627-7.523 7.331-9.27zM2.848 16.52c0-0.135 0.003-0.27 0.007-0.405 0.579 0.012 6.995 0.095 13.607-1.884 0.379 0.742 0.741 1.495 1.073 2.247-4.787 1.348-9.137 5.22-11.283 8.894-2.115-2.347-3.404-5.452-3.404-8.852zM7.961 26.965c1.383-2.827 5.136-6.476 10.474-8.297 1.859 4.83 2.627 8.878 2.824 10.040-4.257 1.813-9.376 1.316-13.298-1.743zM23.485 27.495c-0.136-0.805-0.84-4.681-2.572-9.439 4.149-0.664 7.794 0.423 8.247 0.566-0.59 3.684-2.704 6.865-5.675 8.874z"></path>
</symbol>
<symbol id="icon-instagram" viewBox="0 0 32 32">
<path d="M16.025 8.737c-4.321 0-7.806 3.485-7.806 7.806s3.485 7.806 7.806 7.806c4.321 0 7.806-3.485 7.806-7.806s-3.485-7.806-7.806-7.806zM16.025 21.618c-2.792 0-5.075-2.276-5.075-5.075s2.276-5.075 5.075-5.075c2.799 0 5.075 2.276 5.075 5.075s-2.283 5.075-5.075 5.075zM25.971 8.418c0 1.012-0.815 1.821-1.821 1.821-1.012 0-1.821-0.815-1.821-1.821s0.815-1.821 1.821-1.821c1.006 0 1.821 0.815 1.821 1.821zM31.141 10.266c-0.115-2.439-0.673-4.599-2.459-6.379-1.78-1.78-3.94-2.337-6.379-2.459-2.514-0.143-10.048-0.143-12.561 0-2.432 0.115-4.592 0.673-6.379 2.452s-2.337 3.94-2.459 6.379c-0.143 2.514-0.143 10.048 0 12.561 0.115 2.439 0.673 4.599 2.459 6.379s3.94 2.337 6.379 2.459c2.514 0.143 10.047 0.143 12.561 0 2.439-0.115 4.599-0.673 6.379-2.459 1.78-1.78 2.337-3.94 2.459-6.379 0.143-2.514 0.143-10.041 0-12.554zM27.893 25.517c-0.53 1.331-1.556 2.357-2.894 2.894-2.004 0.795-6.759 0.611-8.974 0.611s-6.977 0.177-8.974-0.611c-1.332-0.53-2.357-1.556-2.894-2.894-0.795-2.004-0.611-6.759-0.611-8.974s-0.177-6.977 0.611-8.974c0.53-1.332 1.556-2.357 2.894-2.894 2.004-0.795 6.76-0.611 8.974-0.611s6.977-0.177 8.974 0.611c1.331 0.53 2.357 1.556 2.894 2.894 0.795 2.004 0.611 6.76 0.611 8.974s0.183 6.977-0.611 8.974z"></path>
</symbol>
<symbol id="icon-linkedin" viewBox="0 0 32 32">
<path d="M29.030 1.326h-26.094c-1.196 0-2.167 0.985-2.167 2.194v26.046c0 1.209 0.971 2.194 2.167 2.194h26.094c1.196 0 2.174-0.985 2.174-2.194v-26.046c0-1.209-0.978-2.194-2.174-2.194zM9.968 27.413h-4.511v-14.524h4.518v14.524h-0.007zM7.712 10.905c-1.447 0-2.615-1.175-2.615-2.616s1.168-2.615 2.615-2.615c1.44 0 2.616 1.175 2.616 2.615 0 1.447-1.168 2.616-2.615 2.616zM26.877 27.413h-4.511v-7.065c0-1.685-0.034-3.852-2.344-3.852-2.351 0-2.711 1.834-2.711 3.73v7.187h-4.511v-14.524h4.327v1.984h0.061c0.605-1.141 2.079-2.344 4.273-2.344 4.565 0 5.414 3.010 5.414 6.923v7.962z"></path>
</symbol>
</defs>
</svg>
